<svg width="766" height="720" viewBox="0 0 766 720" fill="none" xmlns="http://www.w3.org/2000/svg">
<path d="M389.584 111.665C412.594 98.8287 438.913 92.7076 465.419 94.0276C491.925 95.3476 517.505 104.053 539.126 119.112L818.507 313.715C822.156 316.261 825.096 319.654 827.059 323.587C829.022 327.52 829.945 331.868 829.746 336.233C829.546 340.598 828.23 344.842 825.916 348.578C823.602 352.315 820.365 355.425 816.5 357.626L699.917 424.005L690.267 617.777C689.985 623.436 687.829 628.848 684.122 633.202L684.084 633.235L684.045 633.303L683.931 633.437L683.591 633.769L683.02 634.44C664.826 652.619 643.981 668.083 621.157 680.333C579.798 702.464 517.952 722.805 434.313 718.639C350.674 714.474 291.155 688.089 252.198 661.994C236.604 651.646 222.177 639.713 209.162 626.398C205.411 622.526 201.832 618.499 198.435 614.328C196.978 612.56 195.585 610.741 194.261 608.876L194.229 608.805C190.973 604.105 189.365 598.505 189.647 592.846L199.297 399.074L130.049 349.937L120.734 536.98C120.389 543.916 117.232 550.427 111.958 555.081C106.684 559.735 99.7258 562.151 92.6129 561.797C85.5001 561.442 78.8158 558.347 74.0305 553.192C69.2453 548.037 66.751 541.245 67.0964 534.309L78.818 298.936C79.0373 294.459 80.4318 290.114 82.8678 286.318C85.3039 282.522 88.7 279.402 92.7309 277.257L389.548 111.663L389.584 111.665ZM519.843 526.478C496.597 539.707 469.887 546.038 442.975 544.697C416.064 543.357 390.115 534.404 368.298 518.931L251.234 435.883L243.772 585.719C255.267 598.255 268.279 609.386 282.522 618.865C314.057 639.941 364.113 662.709 436.918 666.334C509.722 669.96 561.793 652.278 595.268 634.405C610.379 626.398 624.432 616.627 637.117 605.308L644.579 455.471L519.877 526.515L519.843 526.478ZM508.006 161.677C480.947 142.852 445.117 141.067 416.321 157.111L154.973 302.938L399.8 476.63C427.154 495.995 463.592 497.809 492.7 481.256L753.536 332.747L508.006 161.677Z" fill="#202327"/>
</svg>
