<svg width="28" height="28" viewBox="0 0 28 28" fill="none" xmlns="http://www.w3.org/2000/svg">
<path d="M5.25 25.375C4.55381 25.375 3.88613 25.0984 3.39384 24.6062C2.90156 24.1139 2.625 23.4462 2.625 22.75V5.25C2.625 4.55381 2.90156 3.88613 3.39384 3.39384C3.88613 2.90156 4.55381 2.625 5.25 2.625H19.25C19.4821 2.625 19.7046 2.71719 19.8687 2.88128C20.0328 3.04538 20.125 3.26794 20.125 3.5C20.125 3.73206 20.0328 3.95462 19.8687 4.11872C19.7046 4.28281 19.4821 4.375 19.25 4.375H5.25C5.01794 4.375 4.79538 4.46719 4.63128 4.63128C4.46719 4.79538 4.375 5.01794 4.375 5.25V22.75C4.375 22.9821 4.46719 23.2046 4.63128 23.3687C4.79538 23.5328 5.01794 23.625 5.25 23.625H22.75C22.9821 23.625 23.2046 23.5328 23.3687 23.3687C23.5328 23.2046 23.625 22.9821 23.625 22.75V14C23.625 13.7679 23.7172 13.5454 23.8813 13.3813C24.0454 13.2172 24.2679 13.125 24.5 13.125C24.7321 13.125 24.9546 13.2172 25.1187 13.3813C25.2828 13.5454 25.375 13.7679 25.375 14V22.75C25.375 23.4462 25.0984 24.1139 24.6062 24.6062C24.1139 25.0984 23.4462 25.375 22.75 25.375H5.25Z" fill="#FCBA11"/>
<path d="M14.6195 18.1195L26.8695 5.8695C26.9509 5.78815 27.0154 5.69156 27.0594 5.58527C27.1035 5.47898 27.1261 5.36505 27.1261 5.25C27.1261 5.13495 27.1035 5.02102 27.0594 4.91473C27.0154 4.80843 26.9509 4.71185 26.8695 4.6305C26.7882 4.54914 26.6916 4.48461 26.5853 4.44058C26.479 4.39655 26.3651 4.37389 26.25 4.37389C26.135 4.37389 26.021 4.39655 25.9147 4.44058C25.8084 4.48461 25.7119 4.54914 25.6305 4.6305L14 16.2627L9.36951 11.6305C9.28815 11.5491 9.19157 11.4846 9.08528 11.4406C8.97898 11.3966 8.86506 11.3739 8.75001 11.3739C8.63496 11.3739 8.52103 11.3966 8.41474 11.4406C8.30844 11.4846 8.21186 11.5491 8.13051 11.6305C8.04915 11.7119 7.98462 11.8084 7.94059 11.9147C7.89656 12.021 7.8739 12.1349 7.8739 12.25C7.8739 12.3651 7.89656 12.479 7.94059 12.5853C7.98462 12.6916 8.04915 12.7881 8.13051 12.8695L13.3805 18.1195C13.4618 18.201 13.5583 18.2656 13.6646 18.3097C13.771 18.3539 13.8849 18.3766 14 18.3766C14.1151 18.3766 14.2291 18.3539 14.3354 18.3097C14.4417 18.2656 14.5382 18.201 14.6195 18.1195Z" fill="#FCBA11"/>
</svg>
