<svg width="28" height="28" viewBox="0 0 28 28" fill="none" xmlns="http://www.w3.org/2000/svg">
<g clip-path="url(#clip0)">
<path d="M14.875 9.625C14.875 9.39294 14.7828 9.17038 14.6187 9.00628C14.4546 8.84219 14.2321 8.75 14 8.75C13.7679 8.75 13.5454 8.84219 13.3813 9.00628C13.2172 9.17038 13.125 9.39294 13.125 9.625V15.5085L10.6242 19.6735C10.5047 19.8726 10.4692 20.111 10.5255 20.3363C10.5818 20.5616 10.7253 20.7554 10.9244 20.8749C11.1235 20.9944 11.3619 21.0299 11.5872 20.9736C11.8125 20.9173 12.0062 20.7739 12.1257 20.5748L14.7507 16.1998C14.8321 16.0638 14.8751 15.9084 14.875 15.75V9.625Z" fill="#FCBA11"/>
<path d="M11.375 0C11.1429 0 10.9204 0.0921872 10.7563 0.256282C10.5922 0.420376 10.5 0.642936 10.5 0.875C10.5 1.10706 10.5922 1.32962 10.7563 1.49372C10.9204 1.65781 11.1429 1.75 11.375 1.75H12.25V3.6225C9.86698 3.96678 7.63823 5.0056 5.84216 6.60917C4.04609 8.21275 2.76234 10.31 2.15126 12.6389C1.54018 14.9679 1.62888 17.4252 2.40626 19.704C3.18364 21.9828 4.61525 23.9821 6.52225 25.452L5.46875 26.5055C5.30445 26.6696 5.21205 26.8922 5.21189 27.1244C5.21172 27.3566 5.30381 27.5793 5.46788 27.7436C5.63194 27.9079 5.85456 28.0003 6.08676 28.0005C6.31895 28.0007 6.5417 27.9086 6.706 27.7445L8.0115 26.439C9.84028 27.4655 11.9028 28.0031 14 28C16.0972 28.0031 18.1597 27.4655 19.9885 26.439L21.294 27.7445C21.4583 27.9086 21.681 28.0007 21.9132 28.0005C22.1454 28.0003 22.3681 27.9079 22.5321 27.7436C22.6962 27.5793 22.7883 27.3566 22.7881 27.1244C22.7879 26.8922 22.6956 26.6696 22.5312 26.5055L21.4795 25.452C23.3865 23.982 24.8181 21.9826 25.5954 19.7036C26.3727 17.4247 26.4613 14.9672 25.85 12.6382C25.2387 10.3093 23.9547 8.21205 22.1584 6.60859C20.3621 5.00512 18.1332 3.96651 15.75 3.6225V1.75H16.625C16.8571 1.75 17.0796 1.65781 17.2437 1.49372C17.4078 1.32962 17.5 1.10706 17.5 0.875C17.5 0.642936 17.4078 0.420376 17.2437 0.256282C17.0796 0.0921872 16.8571 0 16.625 0L11.375 0ZM13.1915 5.2815C13.7297 5.24057 14.2703 5.24057 14.8085 5.2815C17.5152 5.49053 20.0357 6.73976 21.8412 8.76707C23.6467 10.7944 24.5968 13.4422 24.4922 16.1549C24.3876 18.8676 23.2364 21.4344 21.2802 23.3166C19.324 25.1989 16.7147 26.2503 14 26.2503C11.2853 26.2503 8.67605 25.1989 6.71981 23.3166C4.76358 21.4344 3.61239 18.8676 3.5078 16.1549C3.4032 13.4422 4.35333 10.7944 6.15882 8.76707C7.96431 6.73976 10.4848 5.49053 13.1915 5.2815ZM4.43253e-09 6.125C4.43253e-09 7.44275 0.58275 8.62575 1.505 9.42725C2.85556 6.76716 5.01716 4.60556 7.67725 3.255C7.09254 2.58218 6.31626 2.10402 5.45231 1.88452C4.58837 1.66502 3.67799 1.71466 2.84303 2.02679C2.00808 2.33892 1.28839 2.89866 0.780296 3.63106C0.272206 4.36347 -4.01106e-05 5.23361 4.43253e-09 6.125H4.43253e-09ZM23.625 1.75C22.3072 1.75 21.1243 2.33275 20.3228 3.255C22.9828 4.60556 25.1444 6.76716 26.495 9.42725C27.1678 8.84254 27.646 8.06625 27.8655 7.20231C28.085 6.33837 28.0353 5.42799 27.7232 4.59303C27.4111 3.75808 26.8513 3.03839 26.1189 2.5303C25.3865 2.02221 24.5164 1.74996 23.625 1.75Z" fill="#FCBA11"/>
</g>
<defs>
<clipPath id="clip0">
<rect width="28" height="28" fill="white"/>
</clipPath>
</defs>
</svg>
