<svg width="35" height="35" viewBox="0 0 35 35" fill="none" xmlns="http://www.w3.org/2000/svg">
<path d="M19.5562 17.5L25.827 11.2437C26.1016 10.9691 26.2559 10.5967 26.2559 10.2083C26.2559 9.81996 26.1016 9.44751 25.827 9.1729C25.5524 8.89829 25.1799 8.74402 24.7916 8.74402C24.4032 8.74402 24.0308 8.89829 23.7562 9.1729L17.4999 15.4437L11.2437 9.1729C10.9691 8.89829 10.5966 8.74402 10.2082 8.74402C9.81989 8.74402 9.44744 8.89829 9.17283 9.1729C8.89822 9.44751 8.74394 9.81996 8.74394 10.2083C8.74394 10.5967 8.89822 10.9691 9.17283 11.2437L15.4437 17.5L9.17283 23.7562C9.03614 23.8918 8.92765 24.0531 8.85361 24.2308C8.77957 24.4085 8.74146 24.5991 8.74146 24.7917C8.74146 24.9842 8.77957 25.1748 8.85361 25.3525C8.92765 25.5302 9.03614 25.6915 9.17283 25.8271C9.3084 25.9638 9.46969 26.0722 9.6474 26.1463C9.82511 26.2203 10.0157 26.2584 10.2082 26.2584C10.4008 26.2584 10.5914 26.2203 10.7691 26.1463C10.9468 26.0722 11.1081 25.9638 11.2437 25.8271L17.4999 19.5562L23.7562 25.8271C23.8917 25.9638 24.053 26.0722 24.2307 26.1463C24.4084 26.2203 24.5991 26.2584 24.7916 26.2584C24.9841 26.2584 25.1747 26.2203 25.3524 26.1463C25.5301 26.0722 25.6914 25.9638 25.827 25.8271C25.9637 25.6915 26.0722 25.5302 26.1462 25.3525C26.2203 25.1748 26.2584 24.9842 26.2584 24.7917C26.2584 24.5991 26.2203 24.4085 26.1462 24.2308C26.0722 24.0531 25.9637 23.8918 25.827 23.7562L19.5562 17.5Z" fill="#FCBA11" fill-opacity="0.92"/>
</svg>
