<svg width="28" height="28" viewBox="0 0 28 28" fill="none" xmlns="http://www.w3.org/2000/svg">
<path d="M1.75 4.375C1.75 3.67881 2.02656 3.01113 2.51884 2.51884C3.01113 2.02656 3.67881 1.75 4.375 1.75H9.625C10.3212 1.75 10.9889 2.02656 11.4812 2.51884C11.9734 3.01113 12.25 3.67881 12.25 4.375V9.625C12.25 10.3212 11.9734 10.9889 11.4812 11.4812C10.9889 11.9734 10.3212 12.25 9.625 12.25H4.375C3.67881 12.25 3.01113 11.9734 2.51884 11.4812C2.02656 10.9889 1.75 10.3212 1.75 9.625V4.375ZM4.375 3.5C4.14294 3.5 3.92038 3.59219 3.75628 3.75628C3.59219 3.92038 3.5 4.14294 3.5 4.375V9.625C3.5 9.85706 3.59219 10.0796 3.75628 10.2437C3.92038 10.4078 4.14294 10.5 4.375 10.5H9.625C9.85706 10.5 10.0796 10.4078 10.2437 10.2437C10.4078 10.0796 10.5 9.85706 10.5 9.625V4.375C10.5 4.14294 10.4078 3.92038 10.2437 3.75628C10.0796 3.59219 9.85706 3.5 9.625 3.5H4.375ZM15.75 4.375C15.75 3.67881 16.0266 3.01113 16.5188 2.51884C17.0111 2.02656 17.6788 1.75 18.375 1.75H23.625C24.3212 1.75 24.9889 2.02656 25.4812 2.51884C25.9734 3.01113 26.25 3.67881 26.25 4.375V9.625C26.25 10.3212 25.9734 10.9889 25.4812 11.4812C24.9889 11.9734 24.3212 12.25 23.625 12.25H18.375C17.6788 12.25 17.0111 11.9734 16.5188 11.4812C16.0266 10.9889 15.75 10.3212 15.75 9.625V4.375ZM18.375 3.5C18.1429 3.5 17.9204 3.59219 17.7563 3.75628C17.5922 3.92038 17.5 4.14294 17.5 4.375V9.625C17.5 9.85706 17.5922 10.0796 17.7563 10.2437C17.9204 10.4078 18.1429 10.5 18.375 10.5H23.625C23.8571 10.5 24.0796 10.4078 24.2437 10.2437C24.4078 10.0796 24.5 9.85706 24.5 9.625V4.375C24.5 4.14294 24.4078 3.92038 24.2437 3.75628C24.0796 3.59219 23.8571 3.5 23.625 3.5H18.375ZM1.75 18.375C1.75 17.6788 2.02656 17.0111 2.51884 16.5188C3.01113 16.0266 3.67881 15.75 4.375 15.75H9.625C10.3212 15.75 10.9889 16.0266 11.4812 16.5188C11.9734 17.0111 12.25 17.6788 12.25 18.375V23.625C12.25 24.3212 11.9734 24.9889 11.4812 25.4812C10.9889 25.9734 10.3212 26.25 9.625 26.25H4.375C3.67881 26.25 3.01113 25.9734 2.51884 25.4812C2.02656 24.9889 1.75 24.3212 1.75 23.625V18.375ZM4.375 17.5C4.14294 17.5 3.92038 17.5922 3.75628 17.7563C3.59219 17.9204 3.5 18.1429 3.5 18.375V23.625C3.5 23.8571 3.59219 24.0796 3.75628 24.2437C3.92038 24.4078 4.14294 24.5 4.375 24.5H9.625C9.85706 24.5 10.0796 24.4078 10.2437 24.2437C10.4078 24.0796 10.5 23.8571 10.5 23.625V18.375C10.5 18.1429 10.4078 17.9204 10.2437 17.7563C10.0796 17.5922 9.85706 17.5 9.625 17.5H4.375ZM15.75 18.375C15.75 17.6788 16.0266 17.0111 16.5188 16.5188C17.0111 16.0266 17.6788 15.75 18.375 15.75H23.625C24.3212 15.75 24.9889 16.0266 25.4812 16.5188C25.9734 17.0111 26.25 17.6788 26.25 18.375V23.625C26.25 24.3212 25.9734 24.9889 25.4812 25.4812C24.9889 25.9734 24.3212 26.25 23.625 26.25H18.375C17.6788 26.25 17.0111 25.9734 16.5188 25.4812C16.0266 24.9889 15.75 24.3212 15.75 23.625V18.375ZM18.375 17.5C18.1429 17.5 17.9204 17.5922 17.7563 17.7563C17.5922 17.9204 17.5 18.1429 17.5 18.375V23.625C17.5 23.8571 17.5922 24.0796 17.7563 24.2437C17.9204 24.4078 18.1429 24.5 18.375 24.5H23.625C23.8571 24.5 24.0796 24.4078 24.2437 24.2437C24.4078 24.0796 24.5 23.8571 24.5 23.625V18.375C24.5 18.1429 24.4078 17.9204 24.2437 17.7563C24.0796 17.5922 23.8571 17.5 23.625 17.5H18.375Z" fill="#FCBA11"/>
</svg>
