<svg width="28" height="28" viewBox="0 0 28 28" fill="none" xmlns="http://www.w3.org/2000/svg">
<path d="M14 1.16666C10.5963 1.16666 7.33214 2.51874 4.92542 4.92545C2.51871 7.33217 1.16663 10.5964 1.16663 14C1.16663 17.4036 2.51871 20.6678 4.92542 23.0745C7.33214 25.4812 10.5963 26.8333 14 26.8333C17.4036 26.8333 20.6678 25.4812 23.0745 23.0745C25.4812 20.6678 26.8333 17.4036 26.8333 14C26.8333 10.5964 25.4812 7.33217 23.0745 4.92545C20.6678 2.51874 17.4036 1.16666 14 1.16666ZM17.3833 24.4627H17.283C17.2082 24.4667 17.1335 24.4554 17.0633 24.4296C16.993 24.4037 16.9289 24.3637 16.8746 24.3122C16.8245 24.2593 16.7854 24.197 16.7595 24.1289C16.7337 24.0608 16.7217 23.9883 16.7241 23.9155V22.4105C16.7311 21.9112 16.7358 21.4072 16.7358 20.8973C16.7339 20.5248 16.6793 20.1544 16.5736 19.7972C16.4741 19.4364 16.2733 19.1117 15.995 18.8615C16.7403 18.7895 17.473 18.6201 18.1743 18.3575C18.7659 18.1327 19.3011 17.7811 19.7423 17.3273C20.1775 16.87 20.5006 16.3193 20.6873 15.7162C20.916 14.9788 21.0245 14.2112 21.0093 13.4388C21.0127 12.9 20.9178 12.3651 20.7293 11.8603C20.5388 11.3517 20.2507 10.8852 19.8811 10.4872C19.9605 10.2865 20.0188 10.0777 20.0538 9.86416C20.1351 9.37528 20.1208 8.87527 20.0118 8.39182C19.9534 8.11407 19.8742 7.84108 19.775 7.57516C19.737 7.56051 19.6966 7.55338 19.656 7.55416H19.5393C19.2943 7.55649 19.0505 7.59732 18.8183 7.67316C18.5616 7.74782 18.3096 7.84116 18.0658 7.95199C17.8233 8.06052 17.5873 8.18283 17.3588 8.31832C17.1507 8.44106 16.9464 8.57023 16.7463 8.70566C14.9473 8.20432 13.0456 8.20432 11.2466 8.70566C11.0457 8.57144 10.8415 8.44229 10.6341 8.31832C10.4025 8.18131 10.1624 8.05896 9.91546 7.95199C9.67242 7.83827 9.42032 7.745 9.16179 7.67316C8.9332 7.59755 8.69437 7.55741 8.45363 7.55416H8.33696C8.29701 7.55397 8.25739 7.56149 8.22029 7.57632C8.11899 7.84218 8.03596 8.11465 7.97179 8.39182C7.87059 8.87646 7.85991 9.37563 7.94029 9.86416C7.97529 10.0777 8.03246 10.2865 8.11179 10.4872C7.74254 10.8852 7.45479 11.3517 7.26479 11.8603C7.07623 12.3651 6.98135 12.9 6.98479 13.4388C6.96936 14.2056 7.07407 14.9701 7.29513 15.7045C7.48996 16.3077 7.81196 16.8618 8.24129 17.3273C8.68463 17.7777 9.21896 18.1288 9.80929 18.3575C10.507 18.6258 11.2385 18.7973 11.9828 18.8673C11.7751 19.0552 11.6095 19.2873 11.4998 19.544C11.3948 19.7995 11.3213 20.0667 11.2851 20.3397C10.8928 20.5277 10.4637 20.6266 10.0286 20.629C9.62457 20.6448 9.22592 20.532 8.88996 20.307C8.56719 20.0682 8.29381 19.7691 8.08496 19.4262C7.99157 19.2824 7.88744 19.1459 7.77346 19.0178C7.65305 18.8835 7.52024 18.7609 7.37679 18.6515C7.23467 18.5455 7.07887 18.4591 6.91363 18.3948C6.75145 18.3235 6.57628 18.2866 6.39913 18.2863C6.35616 18.2877 6.31331 18.2916 6.27079 18.298C6.21246 18.298 6.15413 18.305 6.09813 18.319C6.04804 18.332 6.00064 18.3537 5.95813 18.3832C5.93932 18.3939 5.92363 18.4093 5.91258 18.4279C5.90154 18.4465 5.89552 18.4677 5.89513 18.4893C5.8998 18.5409 5.91569 18.5907 5.94169 18.6355C5.96769 18.6802 6.00316 18.7187 6.04563 18.7483C6.14363 18.8277 6.22646 18.8883 6.29296 18.9315L6.32329 18.9537C6.46679 19.0633 6.60329 19.1823 6.73163 19.3095C6.85296 19.4145 6.96146 19.5335 7.05363 19.663C7.15046 19.789 7.23329 19.9267 7.30096 20.0702C7.37913 20.2137 7.46196 20.3782 7.54829 20.5648C7.74896 21.0712 8.10596 21.5005 8.56796 21.7898C9.05213 22.05 9.59696 22.1795 10.1465 22.1655C10.3331 22.1655 10.5198 22.1538 10.7065 22.1328C10.8885 22.1037 11.0716 22.0722 11.2548 22.036V23.9003C11.2579 23.9753 11.2452 24.0502 11.2175 24.1199C11.1898 24.1897 11.1477 24.2529 11.0941 24.3054C11.0404 24.3578 10.9763 24.3984 10.9059 24.4245C10.8355 24.4506 10.7604 24.4616 10.6855 24.4568H10.619C8.12533 23.6512 6.00126 21.9817 4.62924 19.749C3.25723 17.5163 2.72741 14.8672 3.1352 12.2786C3.54299 9.68993 4.8616 7.33195 6.85357 5.62921C8.84554 3.92647 11.38 2.99087 14.0005 2.99087C16.6211 2.99087 19.1555 3.92647 21.1475 5.62921C23.1395 7.33195 24.4581 9.68993 24.8659 12.2786C25.2737 14.8672 24.7439 17.5163 23.3718 19.749C21.9998 21.9817 19.8758 23.6512 17.3821 24.4568V24.4627H17.3833Z" fill="#909090"/>
</svg>
