<svg width="28" height="28" viewBox="0 0 28 28" fill="none" xmlns="http://www.w3.org/2000/svg">
<path d="M14.6195 2.00551C14.5382 1.92402 14.4417 1.85937 14.3354 1.81526C14.2291 1.77115 14.1151 1.74844 14 1.74844C13.8849 1.74844 13.7709 1.77115 13.6646 1.81526C13.5583 1.85937 13.4618 1.92402 13.3805 2.00551L2.8805 12.5055C2.7993 12.5869 2.73494 12.6835 2.6911 12.7898C2.64726 12.8961 2.6248 13.01 2.625 13.125V25.375C2.625 25.6071 2.71719 25.8296 2.88128 25.9937C3.04538 26.1578 3.26794 26.25 3.5 26.25H11.375C11.6071 26.25 11.8296 26.1578 11.9937 25.9937C12.1578 25.8296 12.25 25.6071 12.25 25.375V18.375H15.75V25.375C15.75 25.6071 15.8422 25.8296 16.0063 25.9937C16.1704 26.1578 16.3929 26.25 16.625 26.25H24.5C24.7321 26.25 24.9546 26.1578 25.1187 25.9937C25.2828 25.8296 25.375 25.6071 25.375 25.375V13.125C25.3752 13.01 25.3527 12.8961 25.3089 12.7898C25.2651 12.6835 25.2007 12.5869 25.1195 12.5055L22.75 10.1378V4.37501C22.75 4.14294 22.6578 3.92038 22.4937 3.75629C22.3296 3.5922 22.1071 3.50001 21.875 3.50001H20.125C19.8929 3.50001 19.6704 3.5922 19.5063 3.75629C19.3422 3.92038 19.25 4.14294 19.25 4.37501V6.63776L14.6195 2.00551ZM4.375 24.5V13.4873L14 3.86226L23.625 13.4873V24.5H17.5V17.5C17.5 17.2679 17.4078 17.0454 17.2437 16.8813C17.0796 16.7172 16.8571 16.625 16.625 16.625H11.375C11.1429 16.625 10.9204 16.7172 10.7563 16.8813C10.5922 17.0454 10.5 17.2679 10.5 17.5V24.5H4.375Z" fill="#FCBA11"/>
</svg>
