<svg width="186" height="64" viewBox="0 0 186 64" fill="none" xmlns="http://www.w3.org/2000/svg">
<path d="M64.3654 27.2771V15.5411H67.2634L69.1534 20.7611C69.2734 21.1091 69.3874 21.4691 69.4954 21.8411C69.6034 22.2011 69.7174 22.5611 69.8374 22.9211H69.9094C70.0294 22.5611 70.1374 22.2011 70.2334 21.8411C70.3414 21.4691 70.4554 21.1091 70.5754 20.7611L72.4294 15.5411H75.3094V27.2771H72.8974V22.9751C72.8974 22.6871 72.9094 22.3691 72.9334 22.0211C72.9574 21.6731 72.9874 21.3251 73.0234 20.9771C73.0594 20.6171 73.0954 20.2691 73.1314 19.9331C73.1674 19.5851 73.2034 19.2671 73.2394 18.9791H73.1674L72.2134 21.7691L70.5394 26.2511H69.0814L67.4074 21.7691L66.4714 18.9791H66.3994C66.4354 19.2671 66.4714 19.5851 66.5074 19.9331C66.5434 20.2691 66.5794 20.6171 66.6154 20.9771C66.6514 21.3251 66.6814 21.6731 66.7054 22.0211C66.7294 22.3691 66.7414 22.6871 66.7414 22.9751V27.2771H64.3654ZM78.0763 27.2771V15.5411H82.1083C82.7563 15.5411 83.3623 15.6071 83.9263 15.7391C84.4903 15.8591 84.9823 16.0691 85.4023 16.3691C85.8223 16.6571 86.1523 17.0471 86.3923 17.5391C86.6443 18.0191 86.7703 18.6131 86.7703 19.3211C86.7703 20.0051 86.6443 20.5991 86.3923 21.1031C86.1523 21.6071 85.8223 22.0211 85.4023 22.3451C84.9823 22.6691 84.4963 22.9091 83.9443 23.0651C83.3923 23.2211 82.8043 23.2991 82.1803 23.2991H80.7223V27.2771H78.0763ZM80.7223 21.1931H82.0183C83.4583 21.1931 84.1783 20.5691 84.1783 19.3211C84.1783 18.7091 83.9863 18.2771 83.6023 18.0251C83.2183 17.7731 82.6663 17.6471 81.9463 17.6471H80.7223V21.1931Z" fill="white"/>
<path d="M63.6914 41.5971L62.1234 44.7651H67.4674L67.2434 41.5971C67.1794 40.5091 67.1047 39.4425 67.0194 38.3971C66.9554 37.3518 66.902 36.2531 66.8594 35.1011H66.7314C66.2194 36.2531 65.718 37.3518 65.2274 38.3971C64.758 39.4425 64.246 40.5091 63.6914 41.5971ZM54.1234 53.2771L65.3234 32.3491H69.4194L71.6594 53.2771H68.0754L67.6594 47.3891H60.8434L57.9314 53.2771H54.1234ZM79.9569 53.6611C79.0822 53.6611 78.2822 53.5225 77.5569 53.2451C76.8315 52.9465 76.2022 52.5305 75.6689 51.9971C75.1355 51.4425 74.7195 50.7705 74.4209 49.9811C74.1222 49.1918 73.9729 48.2851 73.9729 47.2611C73.9729 45.8531 74.2075 44.5411 74.6769 43.3251C75.1675 42.0878 75.8182 41.0211 76.6289 40.1251C77.4609 39.2078 78.4209 38.4931 79.5089 37.9811C80.6182 37.4478 81.7809 37.1811 82.9969 37.1811C83.9569 37.1811 84.7782 37.3731 85.4609 37.7571C86.1435 38.1411 86.6982 38.5891 87.1249 39.1011L85.2049 41.1811C84.8422 40.7545 84.4795 40.4451 84.1169 40.2531C83.7542 40.0611 83.3062 39.9651 82.7729 39.9651C82.0689 39.9651 81.3969 40.1571 80.7569 40.5411C80.1169 40.9251 79.5515 41.4478 79.0609 42.1091C78.5915 42.7491 78.2075 43.5065 77.9089 44.3811C77.6315 45.2345 77.4929 46.1518 77.4929 47.1331C77.4929 48.3278 77.7489 49.2558 78.2609 49.9171C78.7942 50.5571 79.5942 50.8771 80.6609 50.8771C81.2795 50.8771 81.8235 50.7598 82.2929 50.5251C82.7835 50.2691 83.2315 49.9811 83.6369 49.6611L85.1089 51.8371C84.5115 52.2638 83.7969 52.6798 82.9649 53.0851C82.1542 53.4691 81.1515 53.6611 79.9569 53.6611ZM92.1106 53.6611C90.724 53.6611 89.6253 53.1705 88.8146 52.1891C88.0253 51.2078 87.6306 49.7891 87.6306 47.9331C87.6306 46.4398 87.8653 45.0425 88.3346 43.7411C88.804 42.4185 89.4333 41.2771 90.2226 40.3171C91.012 39.3358 91.908 38.5678 92.9106 38.0131C93.9346 37.4585 94.9906 37.1811 96.0786 37.1811C96.8466 37.1811 97.5506 37.3838 98.1906 37.7891C98.8306 38.1731 99.332 38.7065 99.6946 39.3891H99.7586L100.431 37.5651H103.183L100.047 53.2771H97.2306L97.3906 51.1011H97.2946C96.548 51.8691 95.716 52.4878 94.7986 52.9571C93.9026 53.4265 93.0066 53.6611 92.1106 53.6611ZM93.5186 50.8451C94.2013 50.8451 94.8946 50.6425 95.5986 50.2371C96.324 49.8318 97.0066 49.1491 97.6466 48.1891L98.9266 41.9171C98.564 41.2345 98.148 40.7438 97.6786 40.4451C97.2306 40.1465 96.7613 39.9971 96.2706 39.9971C95.6093 39.9971 94.9693 40.1998 94.3506 40.6051C93.732 40.9891 93.188 41.5225 92.7186 42.2051C92.2493 42.8878 91.876 43.6878 91.5986 44.6051C91.3213 45.5011 91.1826 46.4505 91.1826 47.4531C91.1826 48.6051 91.3853 49.4585 91.7906 50.0131C92.2173 50.5678 92.7933 50.8451 93.5186 50.8451ZM117.037 39.2611L117.485 36.2531L118.573 30.6851H121.997L117.453 53.2771H114.637L114.797 51.1011H114.701C113.954 51.8691 113.122 52.4878 112.205 52.9571C111.309 53.4265 110.413 53.6611 109.517 53.6611C108.13 53.6611 107.032 53.1705 106.221 52.1891C105.432 51.2078 105.037 49.7891 105.037 47.9331C105.037 46.4398 105.272 45.0425 105.741 43.7411C106.21 42.4185 106.84 41.2771 107.629 40.3171C108.418 39.3358 109.314 38.5678 110.317 38.0131C111.341 37.4585 112.397 37.1811 113.485 37.1811C114.253 37.1811 114.936 37.3731 115.533 37.7571C116.13 38.1411 116.6 38.6425 116.941 39.2611H117.037ZM110.925 50.8451C111.608 50.8451 112.301 50.6425 113.005 50.2371C113.709 49.8318 114.392 49.1491 115.053 48.1891L116.333 41.9171C115.97 41.2345 115.554 40.7438 115.085 40.4451C114.637 40.1465 114.168 39.9971 113.677 39.9971C113.016 39.9971 112.376 40.1998 111.757 40.6051C111.138 40.9891 110.594 41.5225 110.125 42.2051C109.656 42.8878 109.282 43.6878 109.005 44.6051C108.728 45.5011 108.589 46.4505 108.589 47.4531C108.589 48.6051 108.792 49.4585 109.197 50.0131C109.624 50.5678 110.2 50.8451 110.925 50.8451ZM122.254 47.0051C122.254 45.5331 122.499 44.1998 122.99 43.0051C123.502 41.7891 124.163 40.7545 124.974 39.9011C125.806 39.0265 126.734 38.3545 127.758 37.8851C128.782 37.4158 129.806 37.1811 130.83 37.1811C131.747 37.1811 132.515 37.3305 133.134 37.6291C133.774 37.9278 134.286 38.3438 134.67 38.8771C135.075 39.3891 135.363 39.9971 135.534 40.7011C135.726 41.4051 135.822 42.1625 135.822 42.9731C135.822 43.6558 135.737 44.3171 135.566 44.9571C135.395 45.5971 135.257 46.0451 135.15 46.3011H125.582C125.497 47.1331 125.539 47.8478 125.71 48.4451C125.881 49.0425 126.137 49.5331 126.478 49.9171C126.841 50.3011 127.278 50.5891 127.79 50.7811C128.302 50.9518 128.857 51.0371 129.454 51.0371C130.009 51.0371 130.574 50.9091 131.15 50.6531C131.726 50.3971 132.227 50.1091 132.654 49.7891L133.934 51.9971C133.294 52.4451 132.515 52.8398 131.598 53.1811C130.702 53.5011 129.689 53.6611 128.558 53.6611C127.619 53.6611 126.766 53.5118 125.998 53.2131C125.23 52.9145 124.569 52.4878 124.014 51.9331C123.459 51.3571 123.022 50.6638 122.702 49.8531C122.403 49.0211 122.254 48.0718 122.254 47.0051ZM125.87 44.1251H132.814C132.857 43.9118 132.889 43.6985 132.91 43.4851C132.953 43.2505 132.974 43.0051 132.974 42.7491C132.974 41.9811 132.782 41.3091 132.398 40.7331C132.035 40.1358 131.374 39.8371 130.414 39.8371C129.454 39.8371 128.547 40.2211 127.694 40.9891C126.862 41.7358 126.254 42.7811 125.87 44.1251ZM137.527 53.2771L140.663 37.5651H143.447L143.287 39.7731H143.415C144.226 39.0691 145.068 38.4611 145.943 37.9491C146.818 37.4371 147.682 37.1811 148.535 37.1811C149.132 37.1811 149.644 37.2558 150.071 37.4051C150.498 37.5545 150.85 37.7571 151.127 38.0131C151.426 38.2691 151.65 38.5785 151.799 38.9411C151.97 39.2825 152.098 39.6665 152.183 40.0931C153.122 39.1971 154.05 38.4931 154.967 37.9811C155.884 37.4478 156.77 37.1811 157.623 37.1811C158.924 37.1811 159.863 37.5225 160.439 38.2051C161.036 38.8878 161.335 39.8691 161.335 41.1491C161.335 41.5118 161.314 41.8638 161.271 42.2051C161.228 42.5465 161.164 42.9305 161.079 43.3571L159.095 53.2771H155.639L157.559 43.8051C157.644 43.4425 157.708 43.1331 157.751 42.8771C157.794 42.6211 157.815 42.3758 157.815 42.1411C157.815 40.7971 157.175 40.1251 155.895 40.1251C155.49 40.1251 154.967 40.3171 154.327 40.7011C153.687 41.0851 152.962 41.7038 152.151 42.5571L150.007 53.2771H146.583L148.471 43.8051C148.556 43.4425 148.62 43.1331 148.663 42.8771C148.706 42.6211 148.727 42.3758 148.727 42.1411C148.727 40.7971 148.098 40.1251 146.839 40.1251C146.412 40.1251 145.879 40.3171 145.239 40.7011C144.599 41.0851 143.884 41.7038 143.095 42.5571L140.983 53.2771H137.527ZM163.334 59.7411C163.078 59.7411 162.758 59.6878 162.374 59.5811C161.969 59.4745 161.617 59.3358 161.318 59.1651L162.406 56.6691C162.769 56.8825 163.153 56.9891 163.558 56.9891C164.241 56.9891 164.892 56.7225 165.51 56.1891C166.129 55.6771 166.652 54.9731 167.078 54.0771L167.558 53.1171L164.838 37.5651H168.262L169.254 45.5011C169.34 46.2051 169.414 46.9838 169.478 47.8371C169.542 48.6691 169.596 49.4585 169.638 50.2051H169.766C170.129 49.4585 170.492 48.6798 170.854 47.8691C171.238 47.0371 171.612 46.2478 171.974 45.5011L175.878 37.5651H179.206L170.374 54.1091C169.884 54.9625 169.382 55.7305 168.87 56.4131C168.38 57.1171 167.857 57.7145 167.302 58.2051C166.748 58.6958 166.14 59.0691 165.478 59.3251C164.838 59.6025 164.124 59.7411 163.334 59.7411Z" fill="#FCBA11" fill-opacity="0.92"/>
<rect x="93.9794" y="8.27715" width="86" height="20" rx="2" fill="#FCBA11"/>
<path d="M99.4194 23.2771V12.7811H101.019L103.035 18.3811C103.163 18.7438 103.286 19.1118 103.403 19.4851C103.531 19.8478 103.659 20.2105 103.787 20.5731H103.851C103.979 20.2105 104.097 19.8478 104.203 19.4851C104.321 19.1118 104.443 18.7438 104.571 18.3811L106.555 12.7811H108.171V23.2771H106.923V17.5011C106.923 17.0318 106.945 16.5145 106.987 15.9491C107.03 15.3838 107.067 14.8665 107.099 14.3971H107.035L106.203 16.7811L104.219 22.2211H103.339L101.355 16.7811L100.523 14.3971H100.459C100.491 14.8665 100.523 15.3838 100.555 15.9491C100.598 16.5145 100.619 17.0318 100.619 17.5011V23.2771H99.4194ZM112.852 17.4051L112.356 19.0051H115.508L115.012 17.4051C114.82 16.8185 114.639 16.2371 114.468 15.6611C114.298 15.0745 114.127 14.4771 113.956 13.8691H113.892C113.732 14.4771 113.567 15.0745 113.396 15.6611C113.226 16.2371 113.044 16.8185 112.852 17.4051ZM109.652 23.2771L113.204 12.7811H114.708L118.26 23.2771H116.836L115.844 20.0771H112.02L111.012 23.2771H109.652ZM121.049 23.2771V13.9011H117.881V12.7811H125.561V13.9011H122.393V23.2771H121.049ZM127.451 23.2771V12.7811H130.731C131.264 12.7811 131.755 12.8345 132.203 12.9411C132.661 13.0371 133.051 13.2025 133.371 13.4371C133.701 13.6718 133.957 13.9758 134.139 14.3491C134.32 14.7225 134.411 15.1811 134.411 15.7251C134.411 16.5465 134.197 17.2025 133.771 17.6931C133.344 18.1838 132.768 18.5198 132.043 18.7011L134.715 23.2771H133.211L130.683 18.8451H128.779V23.2771H127.451ZM128.779 17.7571H130.539C131.36 17.7571 131.989 17.5918 132.427 17.2611C132.864 16.9198 133.083 16.4078 133.083 15.7251C133.083 15.0318 132.864 14.5465 132.427 14.2691C131.989 13.9918 131.36 13.8531 130.539 13.8531H128.779V17.7571ZM136.56 23.2771V12.7811H137.888V23.2771H136.56ZM136.944 12.1251L136.352 11.4531L138.624 9.40514L139.376 10.2851L136.944 12.1251ZM144.731 23.4691C144.07 23.4691 143.462 23.3465 142.907 23.1011C142.352 22.8558 141.867 22.5038 141.451 22.0451C141.046 21.5758 140.726 21.0051 140.491 20.3331C140.267 19.6505 140.155 18.8825 140.155 18.0291C140.155 17.1865 140.272 16.4291 140.507 15.7571C140.742 15.0851 141.067 14.5145 141.483 14.0451C141.899 13.5758 142.39 13.2185 142.955 12.9731C143.52 12.7171 144.139 12.5891 144.811 12.5891C145.451 12.5891 146.011 12.7225 146.491 12.9891C146.982 13.2451 147.382 13.5438 147.691 13.8851L146.971 14.7491C146.694 14.4505 146.379 14.2105 146.027 14.0291C145.675 13.8478 145.275 13.7571 144.827 13.7571C144.326 13.7571 143.872 13.8585 143.467 14.0611C143.062 14.2531 142.715 14.5358 142.427 14.9091C142.139 15.2718 141.915 15.7145 141.755 16.2371C141.606 16.7598 141.531 17.3465 141.531 17.9971C141.531 18.6585 141.606 19.2558 141.755 19.7891C141.915 20.3118 142.134 20.7598 142.411 21.1331C142.688 21.5065 143.024 21.7945 143.419 21.9971C143.824 22.1998 144.278 22.3011 144.779 22.3011C145.291 22.3011 145.739 22.1998 146.123 21.9971C146.507 21.7838 146.87 21.4905 147.211 21.1171L147.947 21.9491C147.531 22.4291 147.062 22.8025 146.539 23.0691C146.016 23.3358 145.414 23.4691 144.731 23.4691ZM153.413 23.4691C152.88 23.4691 152.378 23.3945 151.909 23.2451C151.45 23.0851 151.05 22.8291 150.709 22.4771C150.378 22.1145 150.117 21.6451 149.925 21.0691C149.733 20.4931 149.637 19.7838 149.637 18.9411V12.7811H150.965V18.9731C150.965 19.6025 151.029 20.1305 151.157 20.5571C151.285 20.9838 151.456 21.3251 151.669 21.5811C151.893 21.8371 152.154 22.0238 152.453 22.1411C152.752 22.2478 153.072 22.3011 153.413 22.3011C153.765 22.3011 154.09 22.2478 154.389 22.1411C154.688 22.0238 154.949 21.8371 155.173 21.5811C155.397 21.3251 155.573 20.9838 155.701 20.5571C155.829 20.1305 155.893 19.6025 155.893 18.9731V12.7811H157.173V18.9411C157.173 19.7838 157.077 20.4931 156.885 21.0691C156.693 21.6451 156.426 22.1145 156.085 22.4771C155.754 22.8291 155.36 23.0851 154.901 23.2451C154.442 23.3945 153.946 23.4691 153.413 23.4691ZM159.998 23.2771V12.7811H161.326V22.1411H165.918V23.2771H159.998ZM169.634 17.4051L169.138 19.0051H172.29L171.794 17.4051C171.602 16.8185 171.42 16.2371 171.25 15.6611C171.079 15.0745 170.908 14.4771 170.738 13.8691H170.674C170.514 14.4771 170.348 15.0745 170.178 15.6611C170.007 16.2371 169.826 16.8185 169.634 17.4051ZM166.434 23.2771L169.986 12.7811H171.49L175.042 23.2771H173.618L172.626 20.0771H168.802L167.794 23.2771H166.434Z" fill="#212429"/>
<path d="M27.347 10.5018C28.9597 9.57793 30.8036 9.13601 32.6599 9.22846C34.5162 9.3209 36.3071 9.94383 37.8201 11.0233L57.3702 24.9739C57.6255 25.1563 57.8311 25.3998 57.9683 25.6821C58.1054 25.9643 58.1697 26.2764 58.1553 26.5899C58.141 26.9034 58.0484 27.2083 57.886 27.4769C57.7237 27.7454 57.4967 27.9691 57.2257 28.1274L49.0545 32.9047L48.3615 46.8212C48.3413 47.2276 48.1898 47.6165 47.9297 47.9295L47.9271 47.9318L47.9243 47.9367L47.9163 47.9464L47.8925 47.9703L47.8525 48.0185C46.5766 49.3256 45.1153 50.438 43.5156 51.3198C40.6169 52.9127 36.2836 54.379 30.426 54.0873C24.5684 53.7955 20.4021 51.906 17.6759 50.0355C16.5846 49.2937 15.5753 48.4381 14.6649 47.4829C14.4025 47.2052 14.1522 46.9163 13.9147 46.6171C13.8128 46.4903 13.7154 46.3598 13.6228 46.226L13.6206 46.2209C13.3929 45.8836 13.2808 45.4816 13.3011 45.0752L13.9941 31.1587L9.14847 27.6361L8.47949 41.0693C8.45469 41.5674 8.23301 42.0353 7.86323 42.37C7.49345 42.7047 7.00586 42.8788 6.50772 42.854C6.00958 42.8292 5.5417 42.6075 5.207 42.2377C4.8723 41.868 4.69821 41.3804 4.72302 40.8822L5.56485 23.9781C5.5806 23.6565 5.67865 23.3444 5.84961 23.0716C6.02057 22.7988 6.2587 22.5744 6.54121 22.42L27.3445 10.5017L27.347 10.5018ZM36.4334 40.2798C34.8041 41.2318 32.9328 41.6888 31.0481 41.595C29.1633 41.5011 27.3467 40.8604 25.8201 39.7512L17.6285 33.7975L17.0926 44.5586C17.8966 45.4578 18.8069 46.256 19.8036 46.9355C22.0104 48.4463 25.5142 50.0769 30.613 50.3308C35.7118 50.5847 39.3603 49.3103 41.7065 48.0237C42.7655 47.4474 43.7506 46.7445 44.6401 45.9304L45.176 35.1694L36.4358 40.2824L36.4334 40.2798ZM35.6367 14.0829C33.7432 12.7333 31.2338 12.6084 29.2156 13.7631L10.8983 24.2588L28.0301 36.7106C29.9443 38.0988 32.4962 38.2259 34.5364 37.0346L52.8181 26.3464L35.6367 14.0829Z" fill="#FCBA11" fill-opacity="0.92"/>
</svg>
