<svg width="55" height="55" viewBox="0 0 55 55" fill="none" xmlns="http://www.w3.org/2000/svg">
<path d="M23.4896 9.49828C24.8749 8.70473 26.4587 8.32515 28.0531 8.40456C29.6476 8.48396 31.1859 9.01902 32.4854 9.94627L49.278 21.929C49.4973 22.0858 49.6739 22.2949 49.7917 22.5373C49.9095 22.7798 49.9647 23.0479 49.9524 23.3171C49.94 23.5864 49.8605 23.8483 49.721 24.079C49.5816 24.3096 49.3866 24.5017 49.1539 24.6378L42.1352 28.7412L41.54 40.6947C41.5226 41.0438 41.3924 41.3778 41.1691 41.6467L41.1668 41.6487L41.1645 41.6529L41.1576 41.6612L41.1372 41.6817L41.1027 41.7231C40.0068 42.8459 38.7516 43.8013 37.3776 44.5588C34.8878 45.927 31.1656 47.1864 26.1343 46.9359C21.1029 46.6853 17.5243 45.0623 15.1827 43.4556C14.2453 42.8185 13.3784 42.0835 12.5964 41.2631C12.371 41.0246 12.156 40.7764 11.952 40.5194C11.8644 40.4105 11.7808 40.2984 11.7013 40.1835L11.6994 40.1791C11.5038 39.8894 11.4075 39.5441 11.4249 39.195L12.0202 27.2415L7.85806 24.2158L7.28344 35.7541C7.26214 36.182 7.07173 36.5839 6.75411 36.8714C6.43649 37.1589 6.01767 37.3084 5.58979 37.2871C5.16192 37.2658 4.76003 37.0754 4.47255 36.7578C4.18506 36.4402 4.03552 36.0213 4.05683 35.5935L4.77992 21.0737C4.79345 20.7975 4.87767 20.5294 5.02451 20.2951C5.17136 20.0607 5.3759 19.868 5.61856 19.7354L23.4875 9.49817L23.4896 9.49828ZM31.2943 35.076C29.8949 35.8937 28.2875 36.2863 26.6686 36.2057C25.0498 36.125 23.4894 35.5748 22.1781 34.622L15.1419 29.5081L14.6816 38.7512C15.3722 39.5237 16.1541 40.2092 17.0102 40.7929C18.9058 42.0906 21.9154 43.4912 26.295 43.7093C30.6746 43.9274 33.8084 42.8327 35.8236 41.7276C36.7333 41.2326 37.5795 40.6288 38.3435 39.9296L38.8038 30.6864L31.2964 35.0782L31.2943 35.076ZM30.61 12.5743C28.9836 11.4151 26.8282 11.3077 25.0947 12.2996L9.36107 21.3148L24.0764 32.0102C25.7206 33.2027 27.9125 33.3118 29.6649 32.2885L45.3679 23.1079L30.61 12.5743Z" fill="#FCBA11" fill-opacity="0.92"/>
</svg>
